<svg width="213" height="40" viewBox="0 0 213 40" fill="none" xmlns="http://www.w3.org/2000/svg">
<path d="M72.1035 14.704L63.8715 34.288H60.2955L63.1755 27.664L57.8475 14.704H61.6155L65.0475 23.992L68.5275 14.704H72.1035ZM79.8188 28.216C78.5388 28.216 77.3868 27.936 76.3628 27.376C75.3388 26.8 74.5308 25.992 73.9388 24.952C73.3628 23.912 73.0748 22.712 73.0748 21.352C73.0748 19.992 73.3708 18.792 73.9628 17.752C74.5708 16.712 75.3948 15.912 76.4348 15.352C77.4748 14.776 78.6348 14.488 79.9148 14.488C81.1948 14.488 82.3548 14.776 83.3948 15.352C84.4348 15.912 85.2508 16.712 85.8428 17.752C86.4508 18.792 86.7548 19.992 86.7548 21.352C86.7548 22.712 86.4428 23.912 85.8188 24.952C85.2108 25.992 84.3788 26.8 83.3228 27.376C82.2828 27.936 81.1148 28.216 79.8188 28.216ZM79.8188 25.288C80.4268 25.288 80.9948 25.144 81.5228 24.856C82.0668 24.552 82.4988 24.104 82.8188 23.512C83.1388 22.92 83.2988 22.2 83.2988 21.352C83.2988 20.088 82.9628 19.12 82.2908 18.448C81.6348 17.76 80.8268 17.416 79.8668 17.416C78.9068 17.416 78.0988 17.76 77.4428 18.448C76.8028 19.12 76.4828 20.088 76.4828 21.352C76.4828 22.616 76.7948 23.592 77.4188 24.28C78.0588 24.952 78.8588 25.288 79.8188 25.288ZM101.771 14.704V28H98.3874V26.32C97.9554 26.896 97.3874 27.352 96.6834 27.688C95.9954 28.008 95.2434 28.168 94.4274 28.168C93.3874 28.168 92.4674 27.952 91.6674 27.52C90.8674 27.072 90.2354 26.424 89.7714 25.576C89.3234 24.712 89.0994 23.688 89.0994 22.504V14.704H92.4594V22.024C92.4594 23.08 92.7234 23.896 93.2514 24.472C93.7794 25.032 94.4994 25.312 95.4114 25.312C96.3394 25.312 97.0674 25.032 97.5954 24.472C98.1234 23.896 98.3874 23.08 98.3874 22.024V14.704H101.771ZM108.447 16.768C108.879 16.064 109.439 15.512 110.127 15.112C110.831 14.712 111.631 14.512 112.527 14.512V18.04H111.639C110.583 18.04 109.783 18.288 109.239 18.784C108.711 19.28 108.447 20.144 108.447 21.376V28H105.087V14.704H108.447V16.768ZM125.014 18.016V20.848H114.838V18.016H125.014ZM145.294 14.512C146.926 14.512 148.238 15.016 149.23 16.024C150.238 17.016 150.742 18.408 150.742 20.2V28H147.382V20.656C147.382 19.616 147.118 18.824 146.59 18.28C146.062 17.72 145.342 17.44 144.43 17.44C143.518 17.44 142.79 17.72 142.246 18.28C141.718 18.824 141.454 19.616 141.454 20.656V28H138.094V20.656C138.094 19.616 137.83 18.824 137.302 18.28C136.774 17.72 136.054 17.44 135.142 17.44C134.214 17.44 133.478 17.72 132.934 18.28C132.406 18.824 132.142 19.616 132.142 20.656V28H128.782V14.704H132.142V16.312C132.574 15.752 133.126 15.312 133.798 14.992C134.486 14.672 135.238 14.512 136.054 14.512C137.094 14.512 138.022 14.736 138.838 15.184C139.654 15.616 140.286 16.24 140.734 17.056C141.166 16.288 141.79 15.672 142.606 15.208C143.438 14.744 144.334 14.512 145.294 14.512ZM159.834 28.216C158.554 28.216 157.402 27.936 156.378 27.376C155.354 26.8 154.546 25.992 153.954 24.952C153.378 23.912 153.09 22.712 153.09 21.352C153.09 19.992 153.386 18.792 153.978 17.752C154.586 16.712 155.41 15.912 156.45 15.352C157.49 14.776 158.65 14.488 159.93 14.488C161.21 14.488 162.37 14.776 163.41 15.352C164.45 15.912 165.266 16.712 165.858 17.752C166.466 18.792 166.77 19.992 166.77 21.352C166.77 22.712 166.458 23.912 165.834 24.952C165.226 25.992 164.394 26.8 163.338 27.376C162.298 27.936 161.13 28.216 159.834 28.216ZM159.834 25.288C160.442 25.288 161.01 25.144 161.538 24.856C162.082 24.552 162.514 24.104 162.834 23.512C163.154 22.92 163.314 22.2 163.314 21.352C163.314 20.088 162.978 19.12 162.306 18.448C161.65 17.76 160.842 17.416 159.882 17.416C158.922 17.416 158.114 17.76 157.458 18.448C156.818 19.12 156.498 20.088 156.498 21.352C156.498 22.616 156.81 23.592 157.434 24.28C158.074 24.952 158.874 25.288 159.834 25.288ZM176.603 14.512C178.187 14.512 179.467 15.016 180.443 16.024C181.419 17.016 181.907 18.408 181.907 20.2V28H178.547V20.656C178.547 19.6 178.283 18.792 177.755 18.232C177.227 17.656 176.507 17.368 175.595 17.368C174.667 17.368 173.931 17.656 173.387 18.232C172.859 18.792 172.595 19.6 172.595 20.656V28H169.235V14.704H172.595V16.36C173.043 15.784 173.611 15.336 174.299 15.016C175.003 14.68 175.771 14.512 176.603 14.512ZM197.462 21.064C197.462 21.544 197.43 21.976 197.366 22.36H187.646C187.726 23.32 188.062 24.072 188.654 24.616C189.246 25.16 189.974 25.432 190.838 25.432C192.086 25.432 192.974 24.896 193.502 23.824H197.126C196.742 25.104 196.006 26.16 194.918 26.992C193.83 27.808 192.494 28.216 190.91 28.216C189.63 28.216 188.478 27.936 187.454 27.376C186.446 26.8 185.654 25.992 185.078 24.952C184.518 23.912 184.238 22.712 184.238 21.352C184.238 19.976 184.518 18.768 185.078 17.728C185.638 16.688 186.422 15.888 187.43 15.328C188.438 14.768 189.598 14.488 190.91 14.488C192.174 14.488 193.302 14.76 194.294 15.304C195.302 15.848 196.078 16.624 196.622 17.632C197.182 18.624 197.462 19.768 197.462 21.064ZM193.982 20.104C193.966 19.24 193.654 18.552 193.046 18.04C192.438 17.512 191.694 17.248 190.814 17.248C189.982 17.248 189.278 17.504 188.702 18.016C188.142 18.512 187.798 19.208 187.67 20.104H193.982ZM212.635 14.704L204.403 34.288H200.827L203.707 27.664L198.379 14.704H202.147L205.579 23.992L209.059 14.704H212.635Z" fill="white"/>
<path d="M34.1422 5.85781C30.3647 2.08031 25.3422 0 20 0C14.6578 0 9.63531 2.08031 5.85781 5.85781C2.08031 9.63531 0 14.6578 0 20C0 25.3422 2.08039 30.3646 5.85781 34.1422C9.63523 37.9198 14.6578 40 20 40C25.3422 40 30.3647 37.9197 34.1422 34.1422C37.9197 30.3647 40 25.3422 40 20C40 14.6578 37.9196 9.63539 34.1422 5.85781Z" fill="#33CC95"/>
<g clip-path="url(#clip0)">
<path d="M20.5714 8V33.1429" stroke="white" stroke-width="2" stroke-linecap="round" stroke-linejoin="round"/>
<path d="M26.2857 12.5714H17.7143C16.6534 12.5714 15.636 12.9929 14.8859 13.743C14.1357 14.4931 13.7143 15.5106 13.7143 16.5714C13.7143 17.6323 14.1357 18.6497 14.8859 19.3999C15.636 20.15 16.6534 20.5714 17.7143 20.5714H23.4286C24.4894 20.5714 25.5069 20.9929 26.257 21.743C27.0072 22.4932 27.4286 23.5106 27.4286 24.5714C27.4286 25.6323 27.0072 26.6497 26.257 27.3999C25.5069 28.15 24.4894 28.5714 23.4286 28.5714H13.7143" stroke="white" stroke-width="2" stroke-linecap="round" stroke-linejoin="round"/>
</g>
<defs>
<clipPath id="clip0">
<rect width="27.4286" height="27.4286" fill="white" transform="translate(6.85715 6.85714)"/>
</clipPath>
</defs>
</svg>
