<svg width="156" height="21" viewBox="0 0 156 21" fill="none" xmlns="http://www.w3.org/2000/svg">
<path d="M15.1035 0.704L6.87151 20.288H3.29551L6.17551 13.664L0.847509 0.704H4.61551L8.04751 9.992L11.5275 0.704H15.1035ZM22.8188 14.216C21.5388 14.216 20.3868 13.936 19.3628 13.376C18.3388 12.8 17.5308 11.992 16.9388 10.952C16.3628 9.912 16.0748 8.712 16.0748 7.352C16.0748 5.992 16.3708 4.792 16.9628 3.752C17.5708 2.712 18.3948 1.912 19.4348 1.352C20.4748 0.776 21.6348 0.487999 22.9148 0.487999C24.1948 0.487999 25.3548 0.776 26.3948 1.352C27.4348 1.912 28.2508 2.712 28.8428 3.752C29.4508 4.792 29.7548 5.992 29.7548 7.352C29.7548 8.712 29.4428 9.912 28.8188 10.952C28.2108 11.992 27.3788 12.8 26.3228 13.376C25.2828 13.936 24.1148 14.216 22.8188 14.216ZM22.8188 11.288C23.4268 11.288 23.9948 11.144 24.5228 10.856C25.0668 10.552 25.4988 10.104 25.8188 9.512C26.1388 8.92 26.2988 8.2 26.2988 7.352C26.2988 6.088 25.9628 5.12 25.2908 4.448C24.6348 3.76 23.8268 3.416 22.8668 3.416C21.9068 3.416 21.0988 3.76 20.4428 4.448C19.8028 5.12 19.4828 6.088 19.4828 7.352C19.4828 8.616 19.7948 9.592 20.4188 10.28C21.0588 10.952 21.8588 11.288 22.8188 11.288ZM44.7714 0.704V14H41.3874V12.32C40.9554 12.896 40.3874 13.352 39.6834 13.688C38.9954 14.008 38.2434 14.168 37.4274 14.168C36.3874 14.168 35.4674 13.952 34.6674 13.52C33.8674 13.072 33.2354 12.424 32.7714 11.576C32.3234 10.712 32.0994 9.688 32.0994 8.504V0.704H35.4594V8.024C35.4594 9.08 35.7234 9.896 36.2514 10.472C36.7794 11.032 37.4994 11.312 38.4114 11.312C39.3394 11.312 40.0674 11.032 40.5954 10.472C41.1234 9.896 41.3874 9.08 41.3874 8.024V0.704H44.7714ZM51.4466 2.768C51.8786 2.064 52.4386 1.512 53.1266 1.112C53.8306 0.711999 54.6306 0.511999 55.5266 0.511999V4.04H54.6386C53.5826 4.04 52.7826 4.288 52.2386 4.784C51.7106 5.28 51.4466 6.144 51.4466 7.376V14H48.0866V0.704H51.4466V2.768ZM68.0138 4.016V6.848H57.8378V4.016H68.0138ZM88.2939 0.511999C89.9259 0.511999 91.2379 1.016 92.2299 2.024C93.2379 3.016 93.7419 4.408 93.7419 6.2V14H90.3819V6.656C90.3819 5.616 90.1179 4.824 89.5899 4.28C89.0619 3.72 88.3419 3.44 87.4299 3.44C86.5179 3.44 85.7899 3.72 85.2459 4.28C84.7179 4.824 84.4539 5.616 84.4539 6.656V14H81.0939V6.656C81.0939 5.616 80.8299 4.824 80.3019 4.28C79.7739 3.72 79.0539 3.44 78.1419 3.44C77.2139 3.44 76.4779 3.72 75.9339 4.28C75.4059 4.824 75.1419 5.616 75.1419 6.656V14H71.7819V0.704H75.1419V2.312C75.5739 1.752 76.1259 1.312 76.7979 0.991999C77.4859 0.671999 78.2379 0.511999 79.0539 0.511999C80.0939 0.511999 81.0219 0.735999 81.8379 1.184C82.6539 1.616 83.2859 2.24 83.7339 3.056C84.1659 2.288 84.7899 1.672 85.6059 1.208C86.4379 0.743999 87.3339 0.511999 88.2939 0.511999ZM102.834 14.216C101.554 14.216 100.402 13.936 99.3784 13.376C98.3544 12.8 97.5464 11.992 96.9544 10.952C96.3784 9.912 96.0904 8.712 96.0904 7.352C96.0904 5.992 96.3864 4.792 96.9784 3.752C97.5864 2.712 98.4104 1.912 99.4504 1.352C100.49 0.776 101.65 0.487999 102.93 0.487999C104.21 0.487999 105.37 0.776 106.41 1.352C107.45 1.912 108.266 2.712 108.858 3.752C109.466 4.792 109.77 5.992 109.77 7.352C109.77 8.712 109.458 9.912 108.834 10.952C108.226 11.992 107.394 12.8 106.338 13.376C105.298 13.936 104.13 14.216 102.834 14.216ZM102.834 11.288C103.442 11.288 104.01 11.144 104.538 10.856C105.082 10.552 105.514 10.104 105.834 9.512C106.154 8.92 106.314 8.2 106.314 7.352C106.314 6.088 105.978 5.12 105.306 4.448C104.65 3.76 103.842 3.416 102.882 3.416C101.922 3.416 101.114 3.76 100.458 4.448C99.8184 5.12 99.4984 6.088 99.4984 7.352C99.4984 8.616 99.8104 9.592 100.434 10.28C101.074 10.952 101.874 11.288 102.834 11.288ZM119.603 0.511999C121.187 0.511999 122.467 1.016 123.443 2.024C124.419 3.016 124.907 4.408 124.907 6.2V14H121.547V6.656C121.547 5.6 121.283 4.792 120.755 4.232C120.227 3.656 119.507 3.368 118.595 3.368C117.667 3.368 116.931 3.656 116.387 4.232C115.859 4.792 115.595 5.6 115.595 6.656V14H112.235V0.704H115.595V2.36C116.043 1.784 116.611 1.336 117.299 1.016C118.003 0.679999 118.771 0.511999 119.603 0.511999ZM140.462 7.064C140.462 7.544 140.43 7.976 140.366 8.36H130.646C130.726 9.32 131.062 10.072 131.654 10.616C132.246 11.16 132.974 11.432 133.838 11.432C135.086 11.432 135.974 10.896 136.502 9.824H140.126C139.742 11.104 139.006 12.16 137.918 12.992C136.83 13.808 135.494 14.216 133.91 14.216C132.63 14.216 131.478 13.936 130.454 13.376C129.446 12.8 128.654 11.992 128.078 10.952C127.518 9.912 127.238 8.712 127.238 7.352C127.238 5.976 127.518 4.768 128.078 3.728C128.638 2.688 129.422 1.888 130.43 1.328C131.438 0.768 132.598 0.487999 133.91 0.487999C135.174 0.487999 136.302 0.759999 137.294 1.304C138.302 1.848 139.078 2.624 139.622 3.632C140.182 4.624 140.462 5.768 140.462 7.064ZM136.982 6.104C136.966 5.24 136.654 4.552 136.046 4.04C135.438 3.512 134.694 3.248 133.814 3.248C132.982 3.248 132.278 3.504 131.702 4.016C131.142 4.512 130.798 5.208 130.67 6.104H136.982ZM155.635 0.704L147.403 20.288H143.827L146.707 13.664L141.379 0.704H145.147L148.579 9.992L152.059 0.704H155.635Z" fill="white"/>
</svg>
